.
 
http://www.scenetime.com    -  Hottest private tracker on the net. !!!

New release on http://www.scenetime.com

        Seed back for speed


...................................NFO:.................................................[IMG]http://img220.imageshack.us/img220/253/sonofmorning.jpg[/IMG]


[color=blue][size=5][b]Son.of.Morning.2011.DVDRip.XVID.AC3.HQ.Hive-CM8[/b][/size][/color]


[b]Thx Hive

CM8 Doing It Right The First Time :D


Source: DVD-R

Encode:
not the typical A-Movie but has nice cast, havent seen danny glover for a while.
added brightness, sharpness, rgb, denoise
enjoy

Video: 720x304 @bitrate 1800 2pass
Audio: English AC3 5.1 @384
Sample: yes, included
Subs: yes, english in srt /subs[/b]


[url]http://www.imdb.com/title/tt1144815/[/url]


General
Complete name                    : Son.of.Morning.2011.DVDRip.XVID.AC3.HQ.Hive-CM8.avi
Format                           : AVI
Format/Info                      : Audio Video Interleave
File size                        : 1.24 GiB
Duration                         : 1h 20mn
Overall bit rate                 : 2 191 Kbps
Writing application              : Nandub v1.0rc2
Writing library                  : Nandub build 1853/release

Video
ID                               : 0
Format                           : MPEG-4 Visual
Format profile                   : Advanced Simple@L5
Format settings, BVOP            : 2
Format settings, QPel            : Yes
Format settings, GMC             : No warppoints
Format settings, Matrix          : Default (H.263)
Muxing mode                      : Packed bitstream
Codec ID                         : XVID
Codec ID/Hint                    : XviD
Duration                         : 1h 20mn
Bit rate                         : 1 798 Kbps
Width                            : 720 pixels
Height                           : 304 pixels
Display aspect ratio             : 2.35:1
Frame rate                       : 23.976 fps
Color space                      : YUV
Chroma subsampling               : 4:2:0
Bit depth                        : 8 bits
Scan type                        : Progressive
Compression mode                 : Lossy
Bits/(Pixel*Frame)               : 0.343
Stream size                      : 1.02 GiB (82%)
Writing library                  : XviD 1.2.1 (UTC 2008-12-04)

Audio
ID                               : 1
Format                           : AC-3
Format/Info                      : Audio Coding 3
Mode extension                   : CM (complete main)
Codec ID                         : 2000
Duration                         : 1h 20mn
Bit rate mode                    : Constant
Bit rate                         : 384 Kbps
Channel(s)                       : 6 channels
Channel positions                : Front: L C R, Side: L R, LFE
Sampling rate                    : 48.0 KHz
Bit depth                        : 16 bits
Compression mode                 : Lossy
Stream size                      : 222 MiB (18%)
Alignment                        : Split accross interleaves
Interleave, duration             : 42 ms (1.00 video frame)
Interleave, preload duration     : 500 ms


Plot:
A young copywriter becomes the most famous man on the planet
when he is mistaken as the next messiah.


Cast:
Heather Graham     ...    Josephine 
Lorraine Bracco    ...    Leda
Stephen Root       ...    Senator Lewis
Jamie-Lynn Sigler  ...    Jamie
Joseph Cross       ...    Philip
Danny Glover       ...    Gabriel Peters


[img]http://img714.imageshack.us/img714/6767/77423460.png[/img]
[img]http://img545.imageshack.us/img545/6438/sosoe.png[/img]
[img]http://img594.imageshack.us/img594/1162/sosoo.png[/img]
[img]http://img847.imageshack.us/img847/4756/sososoo.png[/img]
[img]http://img221.imageshack.us/img221/1051/sosososoo.png[/img]
[img]http://img35.imageshack.us/img35/8262/sososososoo.png[/img]
[img]http://img16.imageshack.us/img16/9265/sosososososoo.png[/img]



Greetz

ViSiON,SiC,SANTi,3LT0N,YanKeeS,MAGNET,THC,T0XiC,LKRG,FANTASIA-PLAY,FANTASIA-M,FLAWL3SS,
D2U,WBZ,BHRG,NOVA,Vik,Rapeseed,SAFC,goldadvance,MEMORY100,KaN1vE,Unevano,Pinnz,Wayne
Mr Hive,cedrict wink,and all P2P groups
Great Work Guys :D

LOOKING FOR ANYTHING YOU WANT TO LOOK AND SOUND BETTER

CM8@hushmail.com